<mxfile host="app.diagrams.net" modified="2022-01-11T01:53:37.404Z" agent="5.0 (Windows NT 10.0; Win64; x64) AppleWebKit/537.36 (KHTML, like Gecko) Chrome/96.0.4664.110 Safari/537.36" etag="HOFtej-xzB-vYavW5Caj" version="16.2.2" type="github">
  <diagram id="H7_tCYUHHZJKz_Q6d8IM" name="第 1 页">
    <mxGraphModel dx="1038" dy="579" grid="1" gridSize="10" guides="1" tooltips="1" connect="1" arrows="1" fold="1" page="1" pageScale="1" pageWidth="827" pageHeight="1169" math="0" shadow="0">
      <root>
        <mxCell id="0" />
        <mxCell id="1" parent="0" />
        <mxCell id="ndFSLWlLieNPHFFfm7gC-1" value="数据源" style="rounded=0;whiteSpace=wrap;html=1;" vertex="1" parent="1">
          <mxGeometry x="80" y="800" width="120" height="40" as="geometry" />
        </mxCell>
        <mxCell id="ndFSLWlLieNPHFFfm7gC-3" value="业务数据" style="rounded=0;whiteSpace=wrap;html=1;" vertex="1" parent="1">
          <mxGeometry x="280" y="800" width="120" height="40" as="geometry" />
        </mxCell>
        <mxCell id="ndFSLWlLieNPHFFfm7gC-4" value="行为数据" style="rounded=0;whiteSpace=wrap;html=1;" vertex="1" parent="1">
          <mxGeometry x="440" y="800" width="120" height="40" as="geometry" />
        </mxCell>
        <mxCell id="ndFSLWlLieNPHFFfm7gC-5" value="外部数据" style="rounded=0;whiteSpace=wrap;html=1;" vertex="1" parent="1">
          <mxGeometry x="600" y="800" width="120" height="40" as="geometry" />
        </mxCell>
        <mxCell id="ndFSLWlLieNPHFFfm7gC-6" value="数据采集" style="rounded=0;whiteSpace=wrap;html=1;" vertex="1" parent="1">
          <mxGeometry x="80" y="680" width="120" height="40" as="geometry" />
        </mxCell>
        <mxCell id="ndFSLWlLieNPHFFfm7gC-7" value="全量采集" style="rounded=0;whiteSpace=wrap;html=1;" vertex="1" parent="1">
          <mxGeometry x="280" y="680" width="120" height="40" as="geometry" />
        </mxCell>
        <mxCell id="ndFSLWlLieNPHFFfm7gC-8" value="增量采集" style="rounded=0;whiteSpace=wrap;html=1;" vertex="1" parent="1">
          <mxGeometry x="440" y="680" width="120" height="40" as="geometry" />
        </mxCell>
        <mxCell id="ndFSLWlLieNPHFFfm7gC-9" value="爬虫采集" style="rounded=0;whiteSpace=wrap;html=1;" vertex="1" parent="1">
          <mxGeometry x="600" y="680" width="120" height="40" as="geometry" />
        </mxCell>
        <mxCell id="ndFSLWlLieNPHFFfm7gC-10" value="ETL处理" style="rounded=0;whiteSpace=wrap;html=1;" vertex="1" parent="1">
          <mxGeometry x="920" y="680" width="120" height="40" as="geometry" />
        </mxCell>
        <mxCell id="ndFSLWlLieNPHFFfm7gC-11" value="埋点采集" style="rounded=0;whiteSpace=wrap;html=1;" vertex="1" parent="1">
          <mxGeometry x="760" y="680" width="120" height="40" as="geometry" />
        </mxCell>
        <mxCell id="ndFSLWlLieNPHFFfm7gC-12" value="存储计算" style="rounded=0;whiteSpace=wrap;html=1;" vertex="1" parent="1">
          <mxGeometry x="80" y="440" width="120" height="40" as="geometry" />
        </mxCell>
        <mxCell id="ndFSLWlLieNPHFFfm7gC-13" value="实时计算" style="rounded=0;whiteSpace=wrap;html=1;" vertex="1" parent="1">
          <mxGeometry x="280" y="440" width="120" height="40" as="geometry" />
        </mxCell>
        <mxCell id="ndFSLWlLieNPHFFfm7gC-14" value="离线计算" style="rounded=0;whiteSpace=wrap;html=1;" vertex="1" parent="1">
          <mxGeometry x="440" y="440" width="120" height="40" as="geometry" />
        </mxCell>
        <mxCell id="ndFSLWlLieNPHFFfm7gC-15" value="调度加工" style="rounded=0;whiteSpace=wrap;html=1;" vertex="1" parent="1">
          <mxGeometry x="600" y="440" width="120" height="40" as="geometry" />
        </mxCell>
        <mxCell id="ndFSLWlLieNPHFFfm7gC-16" value="数据仓库" style="rounded=0;whiteSpace=wrap;html=1;" vertex="1" parent="1">
          <mxGeometry x="760" y="440" width="120" height="40" as="geometry" />
        </mxCell>
        <mxCell id="ndFSLWlLieNPHFFfm7gC-17" value="数据湖" style="rounded=0;whiteSpace=wrap;html=1;" vertex="1" parent="1">
          <mxGeometry x="280" y="520" width="600" height="40" as="geometry" />
        </mxCell>
        <mxCell id="ndFSLWlLieNPHFFfm7gC-18" value="挖掘分析" style="rounded=0;whiteSpace=wrap;html=1;" vertex="1" parent="1">
          <mxGeometry x="80" y="320" width="120" height="40" as="geometry" />
        </mxCell>
        <mxCell id="ndFSLWlLieNPHFFfm7gC-19" value="即席查询" style="rounded=0;whiteSpace=wrap;html=1;" vertex="1" parent="1">
          <mxGeometry x="280" y="320" width="120" height="40" as="geometry" />
        </mxCell>
      </root>
    </mxGraphModel>
  </diagram>
</mxfile>
